<svg xmlns="http://www.w3.org/2000/svg" xmlns:xlink="http://www.w3.org/1999/xlink" width="100" height="100" x="0" y="0" version="1.1" viewBox="0 0 100 100"><path stroke="none" stroke-dasharray="none" stroke-linecap="inherit" stroke-linejoin="inherit" stroke-width="1" d="M50,200 l900,0 c50,0,50,0,50,50 l0,900 c0,50,0,50,-50,50 l-900,0 c-50,0,-50,0,-50,-50 l0,-900 c0,-50,0,-50,50,-50 Z M200,441 l0,409 c0,41,0,41,41,41 l68,0 c41,0,41,0,41,-41 l0,-409 c0,-41,0,-41,-41,-41 l-68,0 c-41,0,-41,0,-41,41 Z M425,441 l0,300 c0,41,0,41,41,41 l68,0 c41,0,41,0,41,-41 l0,-300 c0,-41,0,-41,-41,-41 l-68,0 c-41,0,-41,0,-41,41 Z M250,0 l900,0 c50,0,50,0,50,50 l0,900 c0,50,0,50,-50,50 l-50,0 l0,-900 l-900,0 l0,-50 c0,-50,0,-50,50,-50 Z M650,441 l0,518 c0,41,0,41,41,41 l68,0 c41,0,41,0,41,-41 l0,-518 c0,-41,0,-41,-41,-41 l-68,0 c-41,0,-41,0,-41,41 Z M650,441" transform="matrix(0.05,0.0,0.0,-0.05,20.0,80.0)"/></svg>