<svg xmlns="http://www.w3.org/2000/svg" xmlns:xlink="http://www.w3.org/1999/xlink" id="Layer_1" x="0" y="0" version="1.1" viewBox="0 0 24 24" style="enable-background:new 0 0 24 24" xml:space="preserve"><style type="text/css">.st0{fill:none}</style><switch><g><path d="M0,0h24v24H0V0z" class="st0"/><g><path d="M22.9,14.8c-2.9,0-3.8-3-4.8-6.3C17,4.9,15.9,1.1,12,1.1S7,4.9,5.9,8.5c-1,3.2-1.9,6.3-4.8,6.3v-1.1 c2.1,0,2.8-2.5,3.7-5.5C5.9,4.5,7.2,0,12,0s6.1,4.5,7.2,8.2c0.9,2.9,1.6,5.5,3.7,5.5C22.9,13.7,22.9,14.8,22.9,14.8z"/></g><g><path d="M10.4,21.4l-5.5-1L5.2,19L9,19.7l1.2-5.8l-1.4,0.5v2.4H7.4v-3.3l4.1-1.6c0.1,0,0.2,0,0.3,0s0.2,0,0.3,0 c0.5,0,1,0.2,1.3,0.7l0.8,1.1c0.7,1.1,1.8,1.7,3.4,1.7v1.4c-1.7,0-3.2-0.6-4.3-1.8l-0.5,2.1l1.6,1.4V24h-1.6v-4.3l-1.6-1.4 L10.4,21.4z M14.3,11.1c-0.3,0.3-0.7,0.4-1.1,0.4c-0.4,0-0.8-0.1-1.1-0.4c-0.3-0.3-0.5-0.6-0.5-1s0.2-0.7,0.5-1s0.7-0.4,1.1-0.4 c0.4,0,0.8,0.1,1.1,0.4c0.3,0.3,0.5,0.6,0.5,1S14.6,10.9,14.3,11.1z"/></g></g></switch></svg>