<svg xmlns="http://www.w3.org/2000/svg" xmlns:xlink="http://www.w3.org/1999/xlink" id="Layer_1" x="0" y="0" version="1.1" viewBox="0 0 24 24" style="enable-background:new 0 0 24 24" xml:space="preserve"><style type="text/css">.st0{fill:none}</style><switch><g><path d="M0,0h24v24H0V0z" class="st0"/><g><path d="M22.9,14.8c-2.9,0-3.8-3-4.8-6.3C17,4.9,15.9,1.1,12,1.1S7,4.9,5.9,8.5c-1,3.2-1.9,6.3-4.8,6.3v-1.1c2,0,2.8-2.5,3.7-5.5 C5.9,4.5,7.3,0,12,0s6.1,4.5,7.2,8.2c0.9,2.9,1.6,5.5,3.7,5.5C22.9,13.7,22.9,14.8,22.9,14.8z"/></g><g><path d="M17,16.5l-0.7,1.1c0.7,1.4,0.7,3.1-0.1,4.5H7.9c-1.3-2.3-0.5-5.2,1.8-6.5c1.4-0.8,3.1-0.9,4.5-0.1l1.1-0.7 c-2.8-1.8-6.5-1-8.3,1.8c-1.2,1.9-1.3,4.3-0.2,6.2c0.2,0.4,0.6,0.6,1,0.6h8.3c0.4,0,0.8-0.2,1-0.6C18.3,20.8,18.2,18.4,17,16.5 L17,16.5z"/><path d="M11.2,20.6c0.5,0.5,1.2,0.5,1.7,0l0,0l3.4-5.1l-5.1,3.4C10.7,19.3,10.7,20.1,11.2,20.6L11.2,20.6z"/></g></g></switch></svg>