<svg xmlns="http://www.w3.org/2000/svg" xmlns:xlink="http://www.w3.org/1999/xlink" x="0" y="0" version="1.1" viewBox="0 0 29 37.5" xml:space="preserve"><g><g xmlns="http://www.w3.org/2000/svg" xmlns:xlink="http://www.w3.org/1999/xlink" transform="translate(-390 -500)"><path d="M399,501c0-0.552-0.447-1-1-1h-7c-0.553,0-1,0.448-1,1v13c0,0.552,0.447,1,1,1h7c0.553,0,1-0.448,1-1V501z M398,514h-7v-1 h7V514z M398,512h-7v-9h7V512z M398,502h-7v-1h7V502z"/><rect width="1" height="1" x="404" y="501"/><rect width="1" height="1" x="402" y="501"/><rect width="1" height="1" x="400" y="501"/><rect width="1" height="1" x="406" y="501"/><rect width="1" height="1" x="408" y="501"/><rect width="1" height="1" x="410" y="501"/><rect width="1" height="1" x="412" y="503"/><rect width="1" height="1" x="412" y="501"/><rect width="1" height="1" x="412" y="522"/><rect width="1" height="1" x="414" y="522"/><rect width="1" height="1" x="414" y="520"/><rect width="1" height="1" x="414" y="518"/><rect width="1" height="1" x="414" y="516"/><rect width="1" height="1" x="410" y="522"/><rect width="1" height="1" x="408" y="522"/><rect width="1" height="1" x="395" y="522"/><rect width="1" height="1" x="397" y="522"/><rect width="1" height="1" x="393" y="520"/><rect width="1" height="1" x="393" y="522"/><rect width="1" height="1" x="393" y="518"/><rect width="1" height="1" x="393" y="516"/><path d="M406,520c0-0.55-0.45-1-1-1v-2c0-0.55-0.45-1-1-1h-3c-0.55,0-1,0.45-1,1v2c-0.55,0-1,0.45-1,1v6c0,0.55,0.45,1,1,1v2 c0,0.55,0.45,1,1,1h3c0.55,0,1-0.45,1-1v-2c0.55,0,1-0.45,1-1v-3h1v-2h-1V520z M401,517h3v2h-3V517z M404,529h-3v-2h3V529z M405,526h-5v-6h5V526z"/><path d="M418,505h-10v8h10V505z M417,512h-8v-6h8V512z"/><rect width="12" height="1" x="407" y="514"/></g></g><text x="0" y="45" fill="#000" font-family="'Helvetica Neue', Helvetica, Arial-Unicode, Arial, Sans-serif" font-size="5" font-weight="bold">Created by Hea Poh Lin</text><text x="0" y="50" fill="#000" font-family="'Helvetica Neue', Helvetica, Arial-Unicode, Arial, Sans-serif" font-size="5" font-weight="bold">from the Noun Project</text></svg>